<mxfile host="Electron" modified="2024-01-11T15:13:30.772Z" agent="Mozilla/5.0 (Windows NT 10.0; Win64; x64) AppleWebKit/537.36 (KHTML, like Gecko) draw.io/22.0.2 Chrome/114.0.5735.289 Electron/25.8.4 Safari/537.36" etag="bP9L4JWHZjR2fLu7ZGN0" version="22.0.2" type="device">
  <diagram name="Page-1" id="k_1RVzYTIezYEHvvWbYa">
    <mxGraphModel dx="1434" dy="870" grid="1" gridSize="10" guides="1" tooltips="1" connect="1" arrows="1" fold="1" page="1" pageScale="1" pageWidth="827" pageHeight="1169" math="0" shadow="0">
      <root>
        <mxCell id="0" />
        <mxCell id="1" parent="0" />
        <mxCell id="WoSEv6_rC6b2_9PiwAPq-92" value="" style="rounded=0;whiteSpace=wrap;html=1;fillColor=none;" vertex="1" parent="1">
          <mxGeometry y="550" width="490" height="180" as="geometry" />
        </mxCell>
        <mxCell id="WoSEv6_rC6b2_9PiwAPq-1" value="Centro_de_mando" style="rounded=0;whiteSpace=wrap;html=1;" vertex="1" parent="1">
          <mxGeometry x="149" y="360" width="120" height="40" as="geometry" />
        </mxCell>
        <mxCell id="WoSEv6_rC6b2_9PiwAPq-2" value="Fecha_inic_act" style="ellipse;whiteSpace=wrap;html=1;" vertex="1" parent="1">
          <mxGeometry x="39" y="310" width="110" height="30" as="geometry" />
        </mxCell>
        <mxCell id="WoSEv6_rC6b2_9PiwAPq-3" value="Comunicadores_int" style="ellipse;whiteSpace=wrap;html=1;" vertex="1" parent="1">
          <mxGeometry x="169" y="290" width="110" height="30" as="geometry" />
        </mxCell>
        <mxCell id="WoSEv6_rC6b2_9PiwAPq-4" value="&lt;u&gt;Codigo_imp&lt;/u&gt;" style="ellipse;whiteSpace=wrap;html=1;" vertex="1" parent="1">
          <mxGeometry x="49" y="370" width="80" height="30" as="geometry" />
        </mxCell>
        <mxCell id="WoSEv6_rC6b2_9PiwAPq-6" value="" style="endArrow=none;html=1;rounded=0;entryX=0;entryY=0.5;entryDx=0;entryDy=0;exitX=1;exitY=0.5;exitDx=0;exitDy=0;" edge="1" parent="1" source="WoSEv6_rC6b2_9PiwAPq-4" target="WoSEv6_rC6b2_9PiwAPq-1">
          <mxGeometry width="50" height="50" relative="1" as="geometry">
            <mxPoint x="459" y="340" as="sourcePoint" />
            <mxPoint x="509" y="290" as="targetPoint" />
          </mxGeometry>
        </mxCell>
        <mxCell id="WoSEv6_rC6b2_9PiwAPq-7" value="" style="endArrow=none;html=1;rounded=0;exitX=0.117;exitY=0.075;exitDx=0;exitDy=0;exitPerimeter=0;entryX=0.709;entryY=1.033;entryDx=0;entryDy=0;entryPerimeter=0;" edge="1" parent="1" source="WoSEv6_rC6b2_9PiwAPq-1" target="WoSEv6_rC6b2_9PiwAPq-2">
          <mxGeometry width="50" height="50" relative="1" as="geometry">
            <mxPoint x="459" y="340" as="sourcePoint" />
            <mxPoint x="509" y="290" as="targetPoint" />
          </mxGeometry>
        </mxCell>
        <mxCell id="WoSEv6_rC6b2_9PiwAPq-8" value="" style="endArrow=none;html=1;rounded=0;entryX=0.5;entryY=1;entryDx=0;entryDy=0;exitX=0.5;exitY=0;exitDx=0;exitDy=0;" edge="1" parent="1" source="WoSEv6_rC6b2_9PiwAPq-1" target="WoSEv6_rC6b2_9PiwAPq-3">
          <mxGeometry width="50" height="50" relative="1" as="geometry">
            <mxPoint x="459" y="340" as="sourcePoint" />
            <mxPoint x="509" y="290" as="targetPoint" />
          </mxGeometry>
        </mxCell>
        <mxCell id="WoSEv6_rC6b2_9PiwAPq-9" value="n" style="text;html=1;align=center;verticalAlign=middle;resizable=0;points=[];autosize=1;strokeColor=none;fillColor=none;" vertex="1" parent="1">
          <mxGeometry x="219" y="320" width="30" height="30" as="geometry" />
        </mxCell>
        <mxCell id="WoSEv6_rC6b2_9PiwAPq-10" value="Controla" style="rhombus;whiteSpace=wrap;html=1;" vertex="1" parent="1">
          <mxGeometry x="459" y="350" width="70" height="60" as="geometry" />
        </mxCell>
        <mxCell id="WoSEv6_rC6b2_9PiwAPq-11" value="Seccion" style="rounded=0;whiteSpace=wrap;html=1;" vertex="1" parent="1">
          <mxGeometry x="609" y="360" width="70" height="40" as="geometry" />
        </mxCell>
        <mxCell id="WoSEv6_rC6b2_9PiwAPq-12" value="" style="endArrow=none;html=1;rounded=0;exitX=1;exitY=0.5;exitDx=0;exitDy=0;entryX=0;entryY=0.5;entryDx=0;entryDy=0;" edge="1" parent="1" source="WoSEv6_rC6b2_9PiwAPq-10" target="WoSEv6_rC6b2_9PiwAPq-11">
          <mxGeometry width="50" height="50" relative="1" as="geometry">
            <mxPoint x="559" y="340" as="sourcePoint" />
            <mxPoint x="609" y="290" as="targetPoint" />
          </mxGeometry>
        </mxCell>
        <mxCell id="WoSEv6_rC6b2_9PiwAPq-13" value="" style="endArrow=none;html=1;rounded=0;exitX=1;exitY=0.5;exitDx=0;exitDy=0;entryX=0;entryY=0.5;entryDx=0;entryDy=0;" edge="1" parent="1" source="WoSEv6_rC6b2_9PiwAPq-1" target="WoSEv6_rC6b2_9PiwAPq-10">
          <mxGeometry width="50" height="50" relative="1" as="geometry">
            <mxPoint x="369" y="380" as="sourcePoint" />
            <mxPoint x="609" y="290" as="targetPoint" />
          </mxGeometry>
        </mxCell>
        <mxCell id="WoSEv6_rC6b2_9PiwAPq-14" value="&lt;u&gt;Codigo&lt;/u&gt;" style="ellipse;whiteSpace=wrap;html=1;" vertex="1" parent="1">
          <mxGeometry x="739" y="400" width="80" height="30" as="geometry" />
        </mxCell>
        <mxCell id="WoSEv6_rC6b2_9PiwAPq-15" value="Nombre" style="ellipse;whiteSpace=wrap;html=1;" vertex="1" parent="1">
          <mxGeometry x="709" y="332" width="70" height="30" as="geometry" />
        </mxCell>
        <mxCell id="WoSEv6_rC6b2_9PiwAPq-16" value="" style="endArrow=none;html=1;rounded=0;entryX=0;entryY=0;entryDx=0;entryDy=0;exitX=1;exitY=0.75;exitDx=0;exitDy=0;" edge="1" parent="1" source="WoSEv6_rC6b2_9PiwAPq-11" target="WoSEv6_rC6b2_9PiwAPq-14">
          <mxGeometry width="50" height="50" relative="1" as="geometry">
            <mxPoint x="559" y="340" as="sourcePoint" />
            <mxPoint x="609" y="290" as="targetPoint" />
          </mxGeometry>
        </mxCell>
        <mxCell id="WoSEv6_rC6b2_9PiwAPq-17" value="" style="endArrow=none;html=1;rounded=0;entryX=0.257;entryY=1.033;entryDx=0;entryDy=0;entryPerimeter=0;exitX=1;exitY=0.5;exitDx=0;exitDy=0;" edge="1" parent="1" source="WoSEv6_rC6b2_9PiwAPq-18" target="WoSEv6_rC6b2_9PiwAPq-15">
          <mxGeometry width="50" height="50" relative="1" as="geometry">
            <mxPoint x="559" y="340" as="sourcePoint" />
            <mxPoint x="609" y="290" as="targetPoint" />
          </mxGeometry>
        </mxCell>
        <mxCell id="WoSEv6_rC6b2_9PiwAPq-19" value="" style="endArrow=none;html=1;rounded=0;entryX=0.257;entryY=1.033;entryDx=0;entryDy=0;entryPerimeter=0;exitX=1;exitY=0.5;exitDx=0;exitDy=0;" edge="1" parent="1" source="WoSEv6_rC6b2_9PiwAPq-11" target="WoSEv6_rC6b2_9PiwAPq-18">
          <mxGeometry width="50" height="50" relative="1" as="geometry">
            <mxPoint x="679" y="380" as="sourcePoint" />
            <mxPoint x="727" y="361" as="targetPoint" />
          </mxGeometry>
        </mxCell>
        <mxCell id="WoSEv6_rC6b2_9PiwAPq-18" value="" style="ellipse;whiteSpace=wrap;html=1;aspect=fixed;" vertex="1" parent="1">
          <mxGeometry x="719" y="360" width="10" height="10" as="geometry" />
        </mxCell>
        <mxCell id="WoSEv6_rC6b2_9PiwAPq-20" value="Compuerta" style="rounded=0;whiteSpace=wrap;html=1;" vertex="1" parent="1">
          <mxGeometry x="608" y="70" width="70" height="40" as="geometry" />
        </mxCell>
        <mxCell id="WoSEv6_rC6b2_9PiwAPq-21" value="Tiene" style="rhombus;whiteSpace=wrap;html=1;" vertex="1" parent="1">
          <mxGeometry x="609" y="230" width="70" height="60" as="geometry" />
        </mxCell>
        <mxCell id="WoSEv6_rC6b2_9PiwAPq-22" value="" style="endArrow=none;html=1;rounded=0;exitX=0.5;exitY=0;exitDx=0;exitDy=0;entryX=0.5;entryY=1;entryDx=0;entryDy=0;" edge="1" parent="1" source="WoSEv6_rC6b2_9PiwAPq-11" target="WoSEv6_rC6b2_9PiwAPq-21">
          <mxGeometry width="50" height="50" relative="1" as="geometry">
            <mxPoint x="559" y="340" as="sourcePoint" />
            <mxPoint x="609" y="290" as="targetPoint" />
          </mxGeometry>
        </mxCell>
        <mxCell id="WoSEv6_rC6b2_9PiwAPq-23" value="" style="endArrow=none;html=1;rounded=0;exitX=0.5;exitY=1;exitDx=0;exitDy=0;" edge="1" parent="1" source="WoSEv6_rC6b2_9PiwAPq-20">
          <mxGeometry width="50" height="50" relative="1" as="geometry">
            <mxPoint x="639" y="110" as="sourcePoint" />
            <mxPoint x="644" y="230" as="targetPoint" />
          </mxGeometry>
        </mxCell>
        <mxCell id="WoSEv6_rC6b2_9PiwAPq-24" value="(1,n)" style="text;html=1;align=center;verticalAlign=middle;resizable=0;points=[];autosize=1;strokeColor=none;fillColor=none;" vertex="1" parent="1">
          <mxGeometry x="669" y="105" width="50" height="30" as="geometry" />
        </mxCell>
        <mxCell id="WoSEv6_rC6b2_9PiwAPq-25" value="(1,1)" style="text;html=1;align=center;verticalAlign=middle;resizable=0;points=[];autosize=1;strokeColor=none;fillColor=none;" vertex="1" parent="1">
          <mxGeometry x="650" y="330" width="50" height="30" as="geometry" />
        </mxCell>
        <mxCell id="WoSEv6_rC6b2_9PiwAPq-26" value="1:N" style="text;html=1;align=center;verticalAlign=middle;resizable=0;points=[];autosize=1;strokeColor=none;fillColor=none;fontStyle=1" vertex="1" parent="1">
          <mxGeometry x="679" y="240" width="40" height="30" as="geometry" />
        </mxCell>
        <mxCell id="WoSEv6_rC6b2_9PiwAPq-27" value="(1,n)" style="text;html=1;align=center;verticalAlign=middle;resizable=0;points=[];autosize=1;strokeColor=none;fillColor=none;" vertex="1" parent="1">
          <mxGeometry x="569" y="334" width="50" height="30" as="geometry" />
        </mxCell>
        <mxCell id="WoSEv6_rC6b2_9PiwAPq-28" value="(1,1)" style="text;html=1;align=center;verticalAlign=middle;resizable=0;points=[];autosize=1;strokeColor=none;fillColor=none;" vertex="1" parent="1">
          <mxGeometry x="249" y="334" width="50" height="30" as="geometry" />
        </mxCell>
        <mxCell id="WoSEv6_rC6b2_9PiwAPq-29" value="1:N" style="text;html=1;align=center;verticalAlign=middle;resizable=0;points=[];autosize=1;strokeColor=none;fillColor=none;fontStyle=1" vertex="1" parent="1">
          <mxGeometry x="469" y="320" width="40" height="30" as="geometry" />
        </mxCell>
        <mxCell id="WoSEv6_rC6b2_9PiwAPq-30" value="&lt;u&gt;Numero_ident&lt;/u&gt;" style="ellipse;whiteSpace=wrap;html=1;" vertex="1" parent="1">
          <mxGeometry x="494" y="130" width="95" height="30" as="geometry" />
        </mxCell>
        <mxCell id="WoSEv6_rC6b2_9PiwAPq-31" value="Exterior" style="ellipse;whiteSpace=wrap;html=1;" vertex="1" parent="1">
          <mxGeometry x="684" y="10" width="70" height="30" as="geometry" />
        </mxCell>
        <mxCell id="WoSEv6_rC6b2_9PiwAPq-32" value="Operativa" style="ellipse;whiteSpace=wrap;html=1;" vertex="1" parent="1">
          <mxGeometry x="724" y="75" width="70" height="30" as="geometry" />
        </mxCell>
        <mxCell id="WoSEv6_rC6b2_9PiwAPq-33" value="" style="endArrow=none;html=1;rounded=0;exitX=0;exitY=0.5;exitDx=0;exitDy=0;entryX=0.5;entryY=0;entryDx=0;entryDy=0;" edge="1" parent="1" source="WoSEv6_rC6b2_9PiwAPq-20" target="WoSEv6_rC6b2_9PiwAPq-30">
          <mxGeometry width="50" height="50" relative="1" as="geometry">
            <mxPoint x="554" y="-30" as="sourcePoint" />
            <mxPoint x="604" y="-80" as="targetPoint" />
          </mxGeometry>
        </mxCell>
        <mxCell id="WoSEv6_rC6b2_9PiwAPq-34" value="" style="endArrow=none;html=1;rounded=0;entryX=0;entryY=0.5;entryDx=0;entryDy=0;exitX=1;exitY=0.5;exitDx=0;exitDy=0;" edge="1" parent="1" source="WoSEv6_rC6b2_9PiwAPq-20" target="WoSEv6_rC6b2_9PiwAPq-32">
          <mxGeometry width="50" height="50" relative="1" as="geometry">
            <mxPoint x="554" y="-30" as="sourcePoint" />
            <mxPoint x="604" y="-80" as="targetPoint" />
          </mxGeometry>
        </mxCell>
        <mxCell id="WoSEv6_rC6b2_9PiwAPq-35" value="" style="endArrow=none;html=1;rounded=0;entryX=0;entryY=0.5;entryDx=0;entryDy=0;exitX=0.75;exitY=0;exitDx=0;exitDy=0;" edge="1" parent="1" source="WoSEv6_rC6b2_9PiwAPq-20" target="WoSEv6_rC6b2_9PiwAPq-31">
          <mxGeometry width="50" height="50" relative="1" as="geometry">
            <mxPoint x="554" y="-30" as="sourcePoint" />
            <mxPoint x="604" y="-80" as="targetPoint" />
          </mxGeometry>
        </mxCell>
        <mxCell id="WoSEv6_rC6b2_9PiwAPq-36" value="Contiene" style="rhombus;whiteSpace=wrap;html=1;" vertex="1" parent="1">
          <mxGeometry x="669" y="500" width="70" height="60" as="geometry" />
        </mxCell>
        <mxCell id="WoSEv6_rC6b2_9PiwAPq-38" value="" style="endArrow=none;html=1;rounded=0;exitX=0.5;exitY=0;exitDx=0;exitDy=0;entryX=0.5;entryY=1;entryDx=0;entryDy=0;" edge="1" parent="1" source="WoSEv6_rC6b2_9PiwAPq-36" target="WoSEv6_rC6b2_9PiwAPq-11">
          <mxGeometry width="50" height="50" relative="1" as="geometry">
            <mxPoint x="559" y="440" as="sourcePoint" />
            <mxPoint x="609" y="390" as="targetPoint" />
          </mxGeometry>
        </mxCell>
        <mxCell id="WoSEv6_rC6b2_9PiwAPq-39" value="Sala" style="rounded=0;whiteSpace=wrap;html=1;" vertex="1" parent="1">
          <mxGeometry x="669" y="615" width="70" height="40" as="geometry" />
        </mxCell>
        <mxCell id="WoSEv6_rC6b2_9PiwAPq-40" value="" style="endArrow=none;html=1;rounded=0;exitX=0.5;exitY=1;exitDx=0;exitDy=0;entryX=0.5;entryY=0;entryDx=0;entryDy=0;" edge="1" parent="1" source="WoSEv6_rC6b2_9PiwAPq-36" target="WoSEv6_rC6b2_9PiwAPq-39">
          <mxGeometry width="50" height="50" relative="1" as="geometry">
            <mxPoint x="779" y="455" as="sourcePoint" />
            <mxPoint x="829" y="405" as="targetPoint" />
          </mxGeometry>
        </mxCell>
        <mxCell id="WoSEv6_rC6b2_9PiwAPq-41" value="(1,n)" style="text;html=1;align=center;verticalAlign=middle;resizable=0;points=[];autosize=1;strokeColor=none;fillColor=none;" vertex="1" parent="1">
          <mxGeometry x="639" y="590" width="50" height="30" as="geometry" />
        </mxCell>
        <mxCell id="WoSEv6_rC6b2_9PiwAPq-42" value="(1,1)" style="text;html=1;align=center;verticalAlign=middle;resizable=0;points=[];autosize=1;strokeColor=none;fillColor=none;" vertex="1" parent="1">
          <mxGeometry x="664" y="410" width="50" height="30" as="geometry" />
        </mxCell>
        <mxCell id="WoSEv6_rC6b2_9PiwAPq-43" value="1:N" style="text;html=1;align=center;verticalAlign=middle;resizable=0;points=[];autosize=1;strokeColor=none;fillColor=none;fontStyle=1" vertex="1" parent="1">
          <mxGeometry x="629" y="515" width="40" height="30" as="geometry" />
        </mxCell>
        <mxCell id="WoSEv6_rC6b2_9PiwAPq-44" value="&lt;u&gt;Numero_ident&lt;/u&gt;" style="ellipse;whiteSpace=wrap;html=1;" vertex="1" parent="1">
          <mxGeometry x="589" y="685" width="95" height="30" as="geometry" />
        </mxCell>
        <mxCell id="WoSEv6_rC6b2_9PiwAPq-45" value="Nombre" style="ellipse;whiteSpace=wrap;html=1;" vertex="1" parent="1">
          <mxGeometry x="679" y="715" width="70" height="30" as="geometry" />
        </mxCell>
        <mxCell id="WoSEv6_rC6b2_9PiwAPq-46" value="Armamento" style="ellipse;whiteSpace=wrap;html=1;" vertex="1" parent="1">
          <mxGeometry x="749" y="685" width="70" height="30" as="geometry" />
        </mxCell>
        <mxCell id="WoSEv6_rC6b2_9PiwAPq-47" value="" style="endArrow=none;html=1;rounded=0;exitX=0.5;exitY=0;exitDx=0;exitDy=0;entryX=0;entryY=1;entryDx=0;entryDy=0;" edge="1" parent="1" source="WoSEv6_rC6b2_9PiwAPq-44" target="WoSEv6_rC6b2_9PiwAPq-39">
          <mxGeometry width="50" height="50" relative="1" as="geometry">
            <mxPoint x="779" y="455" as="sourcePoint" />
            <mxPoint x="829" y="405" as="targetPoint" />
          </mxGeometry>
        </mxCell>
        <mxCell id="WoSEv6_rC6b2_9PiwAPq-48" value="" style="endArrow=none;html=1;rounded=0;exitX=0.5;exitY=0;exitDx=0;exitDy=0;entryX=0.6;entryY=0.975;entryDx=0;entryDy=0;entryPerimeter=0;" edge="1" parent="1" source="WoSEv6_rC6b2_9PiwAPq-45" target="WoSEv6_rC6b2_9PiwAPq-39">
          <mxGeometry width="50" height="50" relative="1" as="geometry">
            <mxPoint x="779" y="455" as="sourcePoint" />
            <mxPoint x="829" y="405" as="targetPoint" />
          </mxGeometry>
        </mxCell>
        <mxCell id="WoSEv6_rC6b2_9PiwAPq-49" value="" style="endArrow=none;html=1;rounded=0;exitX=0.371;exitY=0.033;exitDx=0;exitDy=0;exitPerimeter=0;entryX=0.9;entryY=1;entryDx=0;entryDy=0;entryPerimeter=0;" edge="1" parent="1" source="WoSEv6_rC6b2_9PiwAPq-46" target="WoSEv6_rC6b2_9PiwAPq-39">
          <mxGeometry width="50" height="50" relative="1" as="geometry">
            <mxPoint x="779" y="455" as="sourcePoint" />
            <mxPoint x="829" y="405" as="targetPoint" />
          </mxGeometry>
        </mxCell>
        <mxCell id="WoSEv6_rC6b2_9PiwAPq-50" value="Oficial_imperial" style="rounded=0;whiteSpace=wrap;html=1;" vertex="1" parent="1">
          <mxGeometry x="159" y="620" width="100" height="40" as="geometry" />
        </mxCell>
        <mxCell id="WoSEv6_rC6b2_9PiwAPq-51" value="Dirige" style="rhombus;whiteSpace=wrap;html=1;" vertex="1" parent="1">
          <mxGeometry x="174" y="480" width="70" height="60" as="geometry" />
        </mxCell>
        <mxCell id="WoSEv6_rC6b2_9PiwAPq-52" value="" style="endArrow=none;html=1;rounded=0;exitX=0.5;exitY=1;exitDx=0;exitDy=0;entryX=0.5;entryY=0;entryDx=0;entryDy=0;" edge="1" parent="1" source="WoSEv6_rC6b2_9PiwAPq-1" target="WoSEv6_rC6b2_9PiwAPq-51">
          <mxGeometry width="50" height="50" relative="1" as="geometry">
            <mxPoint x="459" y="440" as="sourcePoint" />
            <mxPoint x="509" y="390" as="targetPoint" />
          </mxGeometry>
        </mxCell>
        <mxCell id="WoSEv6_rC6b2_9PiwAPq-54" value="&lt;u&gt;Numero_ident&lt;/u&gt;" style="ellipse;whiteSpace=wrap;html=1;" vertex="1" parent="1">
          <mxGeometry x="41.5" y="595" width="95" height="30" as="geometry" />
        </mxCell>
        <mxCell id="WoSEv6_rC6b2_9PiwAPq-55" value="" style="ellipse;whiteSpace=wrap;html=1;aspect=fixed;" vertex="1" parent="1">
          <mxGeometry x="714" y="705" width="10" height="10" as="geometry" />
        </mxCell>
        <mxCell id="WoSEv6_rC6b2_9PiwAPq-56" value="Nombre" style="ellipse;whiteSpace=wrap;html=1;" vertex="1" parent="1">
          <mxGeometry x="39" y="645" width="70" height="30" as="geometry" />
        </mxCell>
        <mxCell id="WoSEv6_rC6b2_9PiwAPq-57" value="Fecha_antig" style="ellipse;whiteSpace=wrap;html=1;" vertex="1" parent="1">
          <mxGeometry x="9" y="685" width="95" height="30" as="geometry" />
        </mxCell>
        <mxCell id="WoSEv6_rC6b2_9PiwAPq-58" value="" style="endArrow=none;html=1;rounded=0;exitX=1;exitY=0.5;exitDx=0;exitDy=0;entryX=0;entryY=0;entryDx=0;entryDy=0;" edge="1" parent="1" source="WoSEv6_rC6b2_9PiwAPq-54" target="WoSEv6_rC6b2_9PiwAPq-50">
          <mxGeometry width="50" height="50" relative="1" as="geometry">
            <mxPoint x="459" y="515" as="sourcePoint" />
            <mxPoint x="509" y="465" as="targetPoint" />
          </mxGeometry>
        </mxCell>
        <mxCell id="WoSEv6_rC6b2_9PiwAPq-59" value="(0,1)" style="text;html=1;align=center;verticalAlign=middle;resizable=0;points=[];autosize=1;strokeColor=none;fillColor=none;" vertex="1" parent="1">
          <mxGeometry x="244" y="400" width="50" height="30" as="geometry" />
        </mxCell>
        <mxCell id="WoSEv6_rC6b2_9PiwAPq-60" value="(1,1)" style="text;html=1;align=center;verticalAlign=middle;resizable=0;points=[];autosize=1;strokeColor=none;fillColor=none;" vertex="1" parent="1">
          <mxGeometry x="230" y="590" width="50" height="30" as="geometry" />
        </mxCell>
        <mxCell id="WoSEv6_rC6b2_9PiwAPq-61" value="1:1" style="text;html=1;align=center;verticalAlign=middle;resizable=0;points=[];autosize=1;strokeColor=none;fillColor=none;fontStyle=1" vertex="1" parent="1">
          <mxGeometry x="244" y="490" width="40" height="30" as="geometry" />
        </mxCell>
        <mxCell id="WoSEv6_rC6b2_9PiwAPq-62" value="" style="endArrow=none;html=1;rounded=0;exitX=1;exitY=0.5;exitDx=0;exitDy=0;entryX=0;entryY=0.5;entryDx=0;entryDy=0;" edge="1" parent="1" source="WoSEv6_rC6b2_9PiwAPq-56" target="WoSEv6_rC6b2_9PiwAPq-50">
          <mxGeometry width="50" height="50" relative="1" as="geometry">
            <mxPoint x="459" y="515" as="sourcePoint" />
            <mxPoint x="509" y="465" as="targetPoint" />
          </mxGeometry>
        </mxCell>
        <mxCell id="WoSEv6_rC6b2_9PiwAPq-63" value="" style="endArrow=none;html=1;rounded=0;exitX=0.768;exitY=0.1;exitDx=0;exitDy=0;exitPerimeter=0;entryX=0;entryY=1;entryDx=0;entryDy=0;" edge="1" parent="1" source="WoSEv6_rC6b2_9PiwAPq-57" target="WoSEv6_rC6b2_9PiwAPq-50">
          <mxGeometry width="50" height="50" relative="1" as="geometry">
            <mxPoint x="459" y="515" as="sourcePoint" />
            <mxPoint x="509" y="465" as="targetPoint" />
          </mxGeometry>
        </mxCell>
        <mxCell id="WoSEv6_rC6b2_9PiwAPq-64" value="" style="ellipse;whiteSpace=wrap;html=1;aspect=fixed;" vertex="1" parent="1">
          <mxGeometry x="107" y="649" width="10" height="10" as="geometry" />
        </mxCell>
        <mxCell id="WoSEv6_rC6b2_9PiwAPq-65" value="Militar" style="rounded=0;whiteSpace=wrap;html=1;" vertex="1" parent="1">
          <mxGeometry x="109" y="870" width="70" height="40" as="geometry" />
        </mxCell>
        <mxCell id="WoSEv6_rC6b2_9PiwAPq-66" value="Cientifico" style="rounded=0;whiteSpace=wrap;html=1;" vertex="1" parent="1">
          <mxGeometry x="244" y="870" width="70" height="40" as="geometry" />
        </mxCell>
        <mxCell id="WoSEv6_rC6b2_9PiwAPq-67" value="Es un" style="triangle;whiteSpace=wrap;html=1;rotation=90;" vertex="1" parent="1">
          <mxGeometry x="189" y="770" width="40" height="50" as="geometry" />
        </mxCell>
        <mxCell id="WoSEv6_rC6b2_9PiwAPq-68" value="" style="endArrow=none;html=1;rounded=0;entryX=0.5;entryY=1;entryDx=0;entryDy=0;exitX=0;exitY=0.5;exitDx=0;exitDy=0;" edge="1" parent="1" source="WoSEv6_rC6b2_9PiwAPq-67" target="WoSEv6_rC6b2_9PiwAPq-50">
          <mxGeometry width="50" height="50" relative="1" as="geometry">
            <mxPoint x="460" y="870" as="sourcePoint" />
            <mxPoint x="510" y="820" as="targetPoint" />
          </mxGeometry>
        </mxCell>
        <mxCell id="WoSEv6_rC6b2_9PiwAPq-69" value="" style="endArrow=none;html=1;rounded=0;entryX=1;entryY=0.5;entryDx=0;entryDy=0;exitX=0.5;exitY=0;exitDx=0;exitDy=0;" edge="1" parent="1" source="WoSEv6_rC6b2_9PiwAPq-65" target="WoSEv6_rC6b2_9PiwAPq-67">
          <mxGeometry width="50" height="50" relative="1" as="geometry">
            <mxPoint x="460" y="920" as="sourcePoint" />
            <mxPoint x="510" y="870" as="targetPoint" />
          </mxGeometry>
        </mxCell>
        <mxCell id="WoSEv6_rC6b2_9PiwAPq-70" value="" style="endArrow=none;html=1;rounded=0;entryX=1;entryY=0.5;entryDx=0;entryDy=0;exitX=0.5;exitY=0;exitDx=0;exitDy=0;" edge="1" parent="1" source="WoSEv6_rC6b2_9PiwAPq-66" target="WoSEv6_rC6b2_9PiwAPq-67">
          <mxGeometry width="50" height="50" relative="1" as="geometry">
            <mxPoint x="460" y="920" as="sourcePoint" />
            <mxPoint x="510" y="870" as="targetPoint" />
          </mxGeometry>
        </mxCell>
        <mxCell id="WoSEv6_rC6b2_9PiwAPq-71" value="Rango" style="ellipse;whiteSpace=wrap;html=1;" vertex="1" parent="1">
          <mxGeometry x="77" y="940" width="70" height="30" as="geometry" />
        </mxCell>
        <mxCell id="WoSEv6_rC6b2_9PiwAPq-72" value="Especialidad" style="ellipse;whiteSpace=wrap;html=1;" vertex="1" parent="1">
          <mxGeometry x="249" y="940" width="70" height="30" as="geometry" />
        </mxCell>
        <mxCell id="WoSEv6_rC6b2_9PiwAPq-73" value="" style="endArrow=none;html=1;rounded=0;exitX=0.5;exitY=1;exitDx=0;exitDy=0;entryX=0.5;entryY=0;entryDx=0;entryDy=0;" edge="1" parent="1" source="WoSEv6_rC6b2_9PiwAPq-65" target="WoSEv6_rC6b2_9PiwAPq-71">
          <mxGeometry width="50" height="50" relative="1" as="geometry">
            <mxPoint x="460" y="920" as="sourcePoint" />
            <mxPoint x="510" y="870" as="targetPoint" />
          </mxGeometry>
        </mxCell>
        <mxCell id="WoSEv6_rC6b2_9PiwAPq-74" value="" style="endArrow=none;html=1;rounded=0;entryX=0.5;entryY=1;entryDx=0;entryDy=0;exitX=0.5;exitY=0;exitDx=0;exitDy=0;" edge="1" parent="1" source="WoSEv6_rC6b2_9PiwAPq-72" target="WoSEv6_rC6b2_9PiwAPq-66">
          <mxGeometry width="50" height="50" relative="1" as="geometry">
            <mxPoint x="460" y="920" as="sourcePoint" />
            <mxPoint x="510" y="870" as="targetPoint" />
          </mxGeometry>
        </mxCell>
        <mxCell id="WoSEv6_rC6b2_9PiwAPq-76" value="" style="verticalLabelPosition=bottom;verticalAlign=top;html=1;shape=mxgraph.basic.arc;startAngle=0.46477671252272273;endAngle=0.0314164790945006;rotation=-90;" vertex="1" parent="1">
          <mxGeometry x="184.75" y="770" width="48.5" height="95" as="geometry" />
        </mxCell>
        <mxCell id="WoSEv6_rC6b2_9PiwAPq-78" value="Dirige" style="rhombus;whiteSpace=wrap;html=1;" vertex="1" parent="1">
          <mxGeometry x="299" y="610" width="70" height="60" as="geometry" />
        </mxCell>
        <mxCell id="WoSEv6_rC6b2_9PiwAPq-79" value="Trooper" style="rounded=0;whiteSpace=wrap;html=1;" vertex="1" parent="1">
          <mxGeometry x="402" y="620" width="51" height="40" as="geometry" />
        </mxCell>
        <mxCell id="WoSEv6_rC6b2_9PiwAPq-80" value="" style="endArrow=none;html=1;rounded=0;entryX=1;entryY=0.5;entryDx=0;entryDy=0;exitX=0;exitY=0.5;exitDx=0;exitDy=0;" edge="1" parent="1" source="WoSEv6_rC6b2_9PiwAPq-78" target="WoSEv6_rC6b2_9PiwAPq-50">
          <mxGeometry width="50" height="50" relative="1" as="geometry">
            <mxPoint x="460" y="770" as="sourcePoint" />
            <mxPoint x="510" y="720" as="targetPoint" />
          </mxGeometry>
        </mxCell>
        <mxCell id="WoSEv6_rC6b2_9PiwAPq-81" value="" style="endArrow=none;html=1;rounded=0;entryX=1;entryY=0.5;entryDx=0;entryDy=0;exitX=0;exitY=0.5;exitDx=0;exitDy=0;" edge="1" parent="1" source="WoSEv6_rC6b2_9PiwAPq-79" target="WoSEv6_rC6b2_9PiwAPq-78">
          <mxGeometry width="50" height="50" relative="1" as="geometry">
            <mxPoint x="460" y="770" as="sourcePoint" />
            <mxPoint x="510" y="720" as="targetPoint" />
          </mxGeometry>
        </mxCell>
        <mxCell id="WoSEv6_rC6b2_9PiwAPq-82" value="(1,n)" style="text;html=1;align=center;verticalAlign=middle;resizable=0;points=[];autosize=1;strokeColor=none;fillColor=none;" vertex="1" parent="1">
          <mxGeometry x="239" y="655" width="50" height="30" as="geometry" />
        </mxCell>
        <mxCell id="WoSEv6_rC6b2_9PiwAPq-83" value="(1,n)" style="text;html=1;align=center;verticalAlign=middle;resizable=0;points=[];autosize=1;strokeColor=none;fillColor=none;" vertex="1" parent="1">
          <mxGeometry x="371" y="655" width="50" height="30" as="geometry" />
        </mxCell>
        <mxCell id="WoSEv6_rC6b2_9PiwAPq-84" value="N:M" style="text;html=1;align=center;verticalAlign=middle;resizable=0;points=[];autosize=1;strokeColor=none;fillColor=none;fontStyle=1" vertex="1" parent="1">
          <mxGeometry x="324" y="670" width="50" height="30" as="geometry" />
        </mxCell>
        <mxCell id="WoSEv6_rC6b2_9PiwAPq-85" value="Rango" style="ellipse;whiteSpace=wrap;html=1;" vertex="1" parent="1">
          <mxGeometry x="341" y="565" width="70" height="30" as="geometry" />
        </mxCell>
        <mxCell id="WoSEv6_rC6b2_9PiwAPq-86" value="&lt;u&gt;Numero_ident&lt;/u&gt;" style="ellipse;whiteSpace=wrap;html=1;" vertex="1" parent="1">
          <mxGeometry x="361" y="695" width="95" height="30" as="geometry" />
        </mxCell>
        <mxCell id="WoSEv6_rC6b2_9PiwAPq-87" value="Serie_fab" style="ellipse;whiteSpace=wrap;html=1;" vertex="1" parent="1">
          <mxGeometry x="416" y="570" width="70" height="30" as="geometry" />
        </mxCell>
        <mxCell id="WoSEv6_rC6b2_9PiwAPq-88" value="" style="endArrow=none;html=1;rounded=0;entryX=0.5;entryY=1;entryDx=0;entryDy=0;exitX=0.5;exitY=0;exitDx=0;exitDy=0;" edge="1" parent="1" source="WoSEv6_rC6b2_9PiwAPq-86" target="WoSEv6_rC6b2_9PiwAPq-79">
          <mxGeometry width="50" height="50" relative="1" as="geometry">
            <mxPoint x="422" y="770" as="sourcePoint" />
            <mxPoint x="472" y="720" as="targetPoint" />
          </mxGeometry>
        </mxCell>
        <mxCell id="WoSEv6_rC6b2_9PiwAPq-89" value="" style="endArrow=none;html=1;rounded=0;entryX=0.5;entryY=1;entryDx=0;entryDy=0;exitX=0.25;exitY=0;exitDx=0;exitDy=0;" edge="1" parent="1" source="WoSEv6_rC6b2_9PiwAPq-79" target="WoSEv6_rC6b2_9PiwAPq-85">
          <mxGeometry width="50" height="50" relative="1" as="geometry">
            <mxPoint x="422" y="770" as="sourcePoint" />
            <mxPoint x="472" y="720" as="targetPoint" />
          </mxGeometry>
        </mxCell>
        <mxCell id="WoSEv6_rC6b2_9PiwAPq-90" value="" style="endArrow=none;html=1;rounded=0;entryX=0.5;entryY=1;entryDx=0;entryDy=0;exitX=0.75;exitY=0;exitDx=0;exitDy=0;" edge="1" parent="1" source="WoSEv6_rC6b2_9PiwAPq-79" target="WoSEv6_rC6b2_9PiwAPq-87">
          <mxGeometry width="50" height="50" relative="1" as="geometry">
            <mxPoint x="422" y="770" as="sourcePoint" />
            <mxPoint x="472" y="720" as="targetPoint" />
          </mxGeometry>
        </mxCell>
        <mxCell id="WoSEv6_rC6b2_9PiwAPq-93" value="" style="endArrow=none;html=1;rounded=0;exitX=0.5;exitY=1;exitDx=0;exitDy=0;entryX=0.5;entryY=0;entryDx=0;entryDy=0;" edge="1" parent="1" source="WoSEv6_rC6b2_9PiwAPq-51" target="WoSEv6_rC6b2_9PiwAPq-50">
          <mxGeometry width="50" height="50" relative="1" as="geometry">
            <mxPoint x="209" y="540" as="sourcePoint" />
            <mxPoint x="209" y="620" as="targetPoint" />
          </mxGeometry>
        </mxCell>
        <mxCell id="WoSEv6_rC6b2_9PiwAPq-94" value="Controla" style="rhombus;whiteSpace=wrap;html=1;" vertex="1" parent="1">
          <mxGeometry x="519" y="460" width="70" height="60" as="geometry" />
        </mxCell>
        <mxCell id="WoSEv6_rC6b2_9PiwAPq-95" value="" style="endArrow=none;html=1;rounded=0;entryX=0.5;entryY=1;entryDx=0;entryDy=0;exitX=1;exitY=0;exitDx=0;exitDy=0;" edge="1" parent="1" source="WoSEv6_rC6b2_9PiwAPq-92" target="WoSEv6_rC6b2_9PiwAPq-94">
          <mxGeometry width="50" height="50" relative="1" as="geometry">
            <mxPoint x="460" y="670" as="sourcePoint" />
            <mxPoint x="510" y="620" as="targetPoint" />
          </mxGeometry>
        </mxCell>
        <mxCell id="WoSEv6_rC6b2_9PiwAPq-96" value="" style="endArrow=none;html=1;rounded=0;entryX=0.25;entryY=1;entryDx=0;entryDy=0;exitX=0.5;exitY=0;exitDx=0;exitDy=0;" edge="1" parent="1" source="WoSEv6_rC6b2_9PiwAPq-94" target="WoSEv6_rC6b2_9PiwAPq-11">
          <mxGeometry width="50" height="50" relative="1" as="geometry">
            <mxPoint x="460" y="670" as="sourcePoint" />
            <mxPoint x="510" y="620" as="targetPoint" />
          </mxGeometry>
        </mxCell>
        <mxCell id="WoSEv6_rC6b2_9PiwAPq-97" value="(0,1)" style="text;html=1;align=center;verticalAlign=middle;resizable=0;points=[];autosize=1;strokeColor=none;fillColor=none;" vertex="1" parent="1">
          <mxGeometry x="570" y="430" width="50" height="30" as="geometry" />
        </mxCell>
        <mxCell id="WoSEv6_rC6b2_9PiwAPq-99" value="(1,n)" style="text;html=1;align=center;verticalAlign=middle;resizable=0;points=[];autosize=1;strokeColor=none;fillColor=none;" vertex="1" parent="1">
          <mxGeometry x="479" y="510" width="50" height="30" as="geometry" />
        </mxCell>
        <mxCell id="WoSEv6_rC6b2_9PiwAPq-100" value="1:N" style="text;html=1;align=center;verticalAlign=middle;resizable=0;points=[];autosize=1;strokeColor=none;fillColor=none;fontStyle=1" vertex="1" parent="1">
          <mxGeometry x="479" y="475" width="40" height="30" as="geometry" />
        </mxCell>
        <mxCell id="WoSEv6_rC6b2_9PiwAPq-101" value="Turno" style="ellipse;whiteSpace=wrap;html=1;" vertex="1" parent="1">
          <mxGeometry x="538" y="540" width="70" height="30" as="geometry" />
        </mxCell>
        <mxCell id="WoSEv6_rC6b2_9PiwAPq-102" value="" style="endArrow=none;html=1;rounded=0;entryX=1;entryY=1;entryDx=0;entryDy=0;exitX=0.5;exitY=0;exitDx=0;exitDy=0;" edge="1" parent="1" source="WoSEv6_rC6b2_9PiwAPq-101" target="WoSEv6_rC6b2_9PiwAPq-94">
          <mxGeometry width="50" height="50" relative="1" as="geometry">
            <mxPoint x="460" y="670" as="sourcePoint" />
            <mxPoint x="510" y="620" as="targetPoint" />
          </mxGeometry>
        </mxCell>
        <mxCell id="WoSEv6_rC6b2_9PiwAPq-104" value="Protegida" style="ellipse;whiteSpace=wrap;html=1;" vertex="1" parent="1">
          <mxGeometry x="754" y="580" width="70" height="30" as="geometry" />
        </mxCell>
        <mxCell id="WoSEv6_rC6b2_9PiwAPq-105" value="" style="endArrow=none;html=1;rounded=0;entryX=0;entryY=0.5;entryDx=0;entryDy=0;exitX=1;exitY=0;exitDx=0;exitDy=0;" edge="1" parent="1" source="WoSEv6_rC6b2_9PiwAPq-39" target="WoSEv6_rC6b2_9PiwAPq-104">
          <mxGeometry width="50" height="50" relative="1" as="geometry">
            <mxPoint x="460" y="570" as="sourcePoint" />
            <mxPoint x="510" y="520" as="targetPoint" />
          </mxGeometry>
        </mxCell>
      </root>
    </mxGraphModel>
  </diagram>
</mxfile>
